PathFileType	4	(X/Y/Z)	C:\Users\Basilio\Documents\Thesis Gigler\squatting_fais\c3dfiles\019\SJ_pre2\markers_experimental.trc
DataRate	CameraRate	NumFrames	NumMarkers	Units	OrigDataRate	OrigDataStartFrame	OrigNumFrames
200.000000	200.000000	4	59	mm	200.000000	639	1278
Frame#	Time	FHD			LBHD			RBHD			C7			T10			CLAV			LSHO			LUUPA			LMUPA			LDUPA			LLEP			LMEP			LRAD			LUL			LRFIN			RSHO			RUPA1			RMUPA			RDUPA			RLEP			RMEP			RRAD			RUL			RUFIN			LASI			RASI			USACR			LSACR			RSACR			LTHI1			LTHI2			LTHI3			LTHI4			LLFC			LTIB1			LTIB2			LTIB3			LTIB4			LLMAL			LMMAL			LHEE			LMT1			LMT2			LMT5			RTHI			RTHI2			RTHI3			RTHI4			RLFC			RTIB1			RTIB2			RTIB3			RTIB4			RLMAL			RMMAL			RHEE			RMT1			RMT2			RMT5			
		X1	Y1	Z1	X2	Y2	Z2	X3	Y3	Z3	X4	Y4	Z4	X5	Y5	Z5	X6	Y6	Z6	X7	Y7	Z7	X8	Y8	Z8	X9	Y9	Z9	X10	Y10	Z10	X11	Y11	Z11	X12	Y12	Z12	X13	Y13	Z13	X14	Y14	Z14	X15	Y15	Z15	X16	Y16	Z16	X17	Y17	Z17	X18	Y18	Z18	X19	Y19	Z19	X20	Y20	Z20	X21	Y21	Z21	X22	Y22	Z22	X23	Y23	Z23	X24	Y24	Z24	X25	Y25	Z25	X26	Y26	Z26	X27	Y27	Z27	X28	Y28	Z28	X29	Y29	Z29	X30	Y30	Z30	X31	Y31	Z31	X32	Y32	Z32	X33	Y33	Z33	X34	Y34	Z34	X35	Y35	Z35	X36	Y36	Z36	X37	Y37	Z37	X38	Y38	Z38	X39	Y39	Z39	X40	Y40	Z40	X41	Y41	Z41	X42	Y42	Z42	X43	Y43	Z43	X44	Y44	Z44	X45	Y45	Z45	X46	Y46	Z46	X47	Y47	Z47	X48	Y48	Z48	X49	Y49	Z49	X50	Y50	Z50	X51	Y51	Z51	X52	Y52	Z52	X53	Y53	Z53	X54	Y54	Z54	X55	Y55	Z55	X56	Y56	Z56	X57	Y57	Z57	X58	Y58	Z58	X59	Y59	Z59	

640	3.195	137.1486358642578	879.0834960937502	-858.1538696289065	4.570872306823731	885.756042480469	-1002.933410644531	-0.7031814455986024	882.9272460937502	-862.4539794921877	-81.66238403320314	795.081970214844	-925.6882324218752	-348.6924743652344	694.6705932617189	-930.028503417969	-30.97691535949708	654.8848266601564	-924.239196777344	-34.40214538574219	728.9241333007814	-1073.688598632813	-155.3333435058594	681.3731079101564	-1187.751953125	-195.9291992187501	653.3378295898439	-1161.690185546875	-212.0276184082032	673.1240234375001	-1223.34228515625	-272.4356079101563	690.1997070312501	-1280.557250976563	-306.8590087890626	749.2214965820314	-1258.99560546875	-462.8104553222657	595.7833251953126	-1132.576049804688	-464.3313293457032	554.1605834960939	-1187.193359375	-436.5919494628907	563.2959594726564	-1091.958862304688	-31.18946838378907	726.6835327148439	-783.7190551757815	-159.2764434814453	759.0976562500001	-648.1876831054689	-179.1463012695313	710.8875732421876	-638.3574829101564	-211.9086151123047	744.4709472656251	-600.7594604492189	-282.4092102050782	721.6561889648439	-563.9581298828126	-313.8426818847657	780.148132324219	-589.4789428710939	-454.9804077148439	613.7612304687501	-730.7039794921876	-448.5350341796876	566.9943237304689	-681.4118652343751	-494.4291076660157	547.4528198242189	-825.2519531250002	-463.0435485839845	571.4039306640626	-1098.637573242188	-492.8218383789064	544.9630126953126	-829.6135864257815	-491.3929443359376	629.8939819335939	-934.2957763671877	-520.8034667968751	612.2192382812501	-959.426940917969	-519.7464599609376	611.5520019531251	-905.4837036132815	-391.9319152832032	438.9223632812501	-1165.001708984375	-314.2568359375001	470.0686950683595	-1183.954467773438	-301.0038452148438	509.8306579589845	-1160.348266601563	-263.4752502441407	437.5307922363282	-1197.753173828125	-180.8359832763672	418.301727294922	-1201.156372070313	-150.4567260742188	284.6039428710938	-1176.696655273438	-227.1137847900391	268.2142944335938	-1219.804077148438	-192.4637908935547	252.4481964111329	-1198.775756835938	-227.8446197509766	184.1185913085938	-1159.33740234375	-348.7395324707032	96.93406677246097	-1174.447631835938	-317.6994323730469	95.4387893676758	-1092.825317382813	-404.9785156250001	44.42453384399415	-1113.42578125	-192.1857299804688	55.99728012084962	-1138.500854492188	-200.4831237792969	58.5651321411133	-1180.8447265625	-250.9151916503907	35.22677230834962	-1225.723876953125	-457.2533264160157	473.6657714843751	-718.3882446289064	-399.8851013183595	501.0423889160157	-715.5396728515626	-390.5362548828126	519.7222900390626	-743.9672851562501	-333.4785156250001	473.0598754882814	-678.2106323242189	-192.1292724609376	420.0802001953126	-653.4849243164064	-178.4739990234375	248.0009765625001	-700.5872192382814	-274.7694396972657	206.4359436035157	-662.9202880859376	-238.2593994140626	190.009521484375	-688.6665039062501	-250.5181427001954	146.9089050292969	-732.1053466796876	-353.2354736328126	98.08178710937503	-701.4667968750001	-314.6309204101563	93.59848785400392	-774.0325927734377	-400.2379455566407	44.35398864746094	-766.2108154296876	-198.4137878417969	52.93526840209962	-708.6723632812501	-212.6214447021485	60.84301757812501	-664.7302246093751	-266.9064636230469	41.8943214416504	-628.7592163085939	
641	3.2	137.4339904785157	877.2579345703127	-858.3111572265627	4.435511112213136	884.2501220703127	-1003.028198242188	-0.3411175608634949	880.9292602539065	-862.6428833007815	-81.88574218750001	793.7595214843752	-925.916687011719	-348.6292419433594	693.9060058593751	-930.0975341796877	-31.05113029479981	653.1865844726564	-924.2901611328127	-34.20284271240235	727.3707885742189	-1073.700439453125	-154.7798919677735	680.0824584960939	-1188.422607421875	-195.7559204101563	652.0415649414064	-1161.101196289063	-211.8572845458985	671.6598510742189	-1223.480102539063	-272.3302612304688	689.1871948242189	-1280.601440429688	-306.8770751953126	748.4072265625001	-1259.22265625	-462.7274780273439	595.1895751953126	-1132.633056640625	-464.4140930175782	553.6545410156251	-1187.063598632813	-436.8618164062501	562.8327026367189	-1091.74365234375	-31.38274765014649	725.5963745117189	-783.817077636719	-159.1217346191407	758.0669555664064	-648.3953247070314	-179.128173828125	710.0046997070314	-638.3777465820314	-211.8542633056641	743.5332641601564	-600.8734130859376	-282.3307495117188	720.7620239257814	-564.0014648437501	-313.6647644042969	779.466247558594	-589.6300048828126	-455.0742492675782	613.1798706054689	-730.8583984375001	-448.6965942382814	566.4792480468751	-681.5559082031251	-494.6593017578126	547.7150268554689	-824.7996215820315	-462.318328857422	569.2144165039064	-1097.654418945313	-493.714324951172	545.2529907226564	-827.962341308594	-491.5043029785157	629.1452026367189	-934.4126586914065	-520.8898925781251	611.4143676757814	-959.4236450195315	-519.9593505859376	610.7856445312501	-905.5982055664065	-391.9709472656251	438.4285888671876	-1164.99853515625	-314.2824096679688	469.7447509765626	-1183.916381835938	-301.1707153320313	509.5348510742189	-1160.32373046875	-263.6449279785157	437.3904724121095	-1197.897338867188	-180.8370361328125	418.2278137207032	-1201.286743164063	-150.4692535400391	284.7124938964844	-1176.825073242188	-227.1020660400391	268.2465820312501	-1219.888793945313	-192.5206451416016	252.4507446289063	-1198.86962890625	-227.8134918212891	184.1300964355469	-1159.436279296875	-348.7520446777344	96.94195556640628	-1174.468139648438	-317.7404174804688	95.47778320312501	-1092.767578125	-405.0186157226564	44.45462799072266	-1113.39794921875	-191.9114837646485	56.02195358276369	-1138.038818359375	-200.5111389160157	58.55504608154298	-1180.875244140625	-250.9001770019532	35.24198913574219	-1225.7578125	-457.3575439453126	473.0917358398439	-718.3405151367189	-400.0968017578126	500.6862792968751	-715.5254516601564	-390.6307067871095	519.1146850585939	-743.9891357421876	-333.6199340820313	472.8642883300782	-678.2521972656251	-192.0735015869141	420.0311279296876	-653.4887695312501	-178.2711029052735	247.7345275878907	-700.3819580078126	-274.9733581542969	206.3359069824219	-662.9169921875001	-238.1398468017579	189.6316986083985	-688.6166381835939	-251.5442504882813	147.4387512207032	-730.0070190429689	-353.2492980957032	98.06215667724612	-701.5095825195314	-314.6318969726563	93.59079742431642	-774.0239868164065	-400.4497070312501	44.49588012695313	-766.1149291992189	-198.4329681396485	52.91740036010744	-708.6848754882814	-212.4654541015626	60.83654785156251	-664.7400512695314	-266.9031066894532	41.90221405029298	-628.7590942382814	
642	3.205	137.7063598632813	875.3820800781252	-858.3953857421877	5.553096771240235	882.1446533203127	-1002.871948242188	0.2010671943426133	878.884948730469	-862.672790527344	-84.92516326904298	793.2679443359377	-927.5509033203127	-348.8447570800782	693.1616821289064	-930.1422119140627	-31.14390563964844	651.5244140625001	-924.3276367187502	-34.05882644653321	725.4743041992189	-1073.753173828125	-155.1948394775391	678.4795532226564	-1187.895141601563	-196.5176696777344	650.2399902343751	-1160.126586914063	-211.7350463867188	670.4866943359376	-1223.5703125	-272.1799316406251	688.0552368164064	-1280.79345703125	-306.8309020996094	747.4987792968751	-1259.436157226563	-462.782196044922	594.6433715820314	-1132.521728515625	-464.4652709960939	552.9606323242189	-1186.992797851563	-437.1454467773439	562.2461547851564	-1091.573974609375	-31.33998680114747	724.0787963867189	-784.2568969726565	-158.9656372070313	756.7635498046876	-648.4340209960939	-179.0894927978516	708.5314941406251	-638.4512939453126	-211.700668334961	742.4989013671876	-601.0869750976564	-282.3835144042969	720.0218505859376	-564.0918579101564	-313.4361267089844	778.6790161132815	-589.7299194335939	-455.2747192382814	612.7267456054689	-731.0484619140626	-448.7784423828126	565.8032226562501	-681.6878051757814	-423.8558349609376	573.2074584960939	-776.710876464844	-461.8165283203126	566.7692260742189	-1096.483154296875	-494.6487426757814	545.9380493164064	-826.0725097656252	-491.8656616210939	628.4468383789064	-934.4136352539065	-521.1234130859376	610.6515502929689	-959.4667968750002	-520.2197875976564	610.2251586914064	-905.4929199218752	-391.9511718750001	437.8594055175782	-1164.9736328125	-314.3551330566407	469.3827209472657	-1183.976318359375	-301.3034362792969	509.2598571777345	-1160.232543945313	-263.7021179199219	437.1900024414064	-1197.915405273438	-180.9299011230469	418.2046813964845	-1201.424682617188	-150.4703674316407	284.7044372558594	-1176.8818359375	-227.2264099121094	268.2621154785157	-1219.963012695313	-192.5393676757813	252.4297180175782	-1198.961059570313	-227.9051208496094	184.1361541748047	-1159.484130859375	-348.7600708007813	96.94824981689456	-1174.45068359375	-317.7182006835938	95.51020812988283	-1092.756469726563	-405.0462646484376	44.48659896850587	-1113.423095703125	-191.8121795654297	56.0792922973633	-1137.779296875	-200.5072784423829	58.60827255249025	-1180.869018554688	-250.9438781738282	35.19377517700196	-1225.702758789063	-457.3530578613282	472.2705993652345	-718.2227783203126	-390.776336669922	518.5859985351564	-744.0657958984376	-400.2135620117189	500.197235107422	-715.4638671875001	-333.6608581542969	472.5206298828126	-678.2924194335939	-192.026840209961	420.0329895019532	-653.4177246093751	-178.3082580566407	247.7879028320313	-700.4487304687501	-275.1598205566407	206.2689361572266	-662.9158935546876	-238.2029418945313	189.7101287841797	-688.6653442382814	-250.5223693847657	146.909408569336	-732.2284545898439	-353.2508850097657	98.094352722168	-701.4883422851564	-314.6306457519532	93.5913772583008	-774.0305175781252	-400.2467041015626	44.36055374145509	-766.2391967773439	-198.4342803955079	52.96566009521486	-708.6722412109376	-212.5581359863282	60.85725021362306	-664.7418823242189	-266.9165954589844	41.95038223266602	-628.7479248046876	
643	3.21	137.905502319336	873.5244140625002	-858.4846801757815	5.557551383972169	880.407409667969	-1002.999816894531	0.3182931244373322	877.2100219726565	-862.7673339843752	-84.56743621826173	791.7186279296877	-927.4234008789065	-348.7769470214844	692.2815551757814	-930.2880859375002	-31.27917098999024	649.8194580078126	-924.3388671875002	-33.84395599365235	723.8234863281251	-1073.852416992188	-155.1641540527344	677.1327514648439	-1187.904418945313	-196.8542480468751	648.7545166015626	-1159.295166015625	-211.6903076171876	669.2214965820314	-1223.63818359375	-272.2620849609376	687.0520629882814	-1280.891235351563	-306.8100280761719	746.5209960937501	-1259.573852539063	-463.026824951172	594.1680297851564	-1132.263549804688	-464.4993286132814	552.2962036132814	-1186.859741210938	-437.3174743652345	561.5322265625001	-1091.515625	-31.25321578979493	722.1218261718751	-784.062927246094	-158.7271423339844	755.2445068359376	-648.4194335937501	-179.1189270019532	707.5174560546876	-638.5708007812501	-211.5601348876954	741.3369140625001	-601.2197875976564	-282.3352966308594	719.2420654296876	-564.3308105468751	-313.3441772460938	777.8655395507815	-589.9146118164064	-455.3851318359376	612.2661743164064	-731.2715454101564	-449.0368041992189	565.2185058593751	-681.7297973632814	-424.091522216797	572.6244506835939	-776.8291625976565	-461.6144104003907	565.6395263671876	-1095.853149414063	-496.165496826172	543.6735839843751	-824.7397460937502	-492.3726806640626	627.7705078125001	-934.3723144531252	-521.6088867187501	609.8441162109376	-959.5393676757815	-520.5172119140626	609.2843627929689	-905.5664672851565	-392.049530029297	437.4092407226564	-1164.99560546875	-314.4482116699219	469.0137329101564	-1184.024536132813	-301.4262084960938	508.864959716797	-1160.200805664063	-263.7665405273438	436.9997863769532	-1198.03271484375	-180.9176940917969	418.1755371093751	-1201.575805664063	-150.4611206054688	284.9754028320313	-1176.610229492188	-227.187728881836	268.2740783691407	-1220.056884765625	-192.4950561523438	252.4314880371094	-1199.030883789063	-227.9331817626954	184.1513214111328	-1159.535034179688	-348.7565917968751	96.95507812500003	-1174.440307617188	-317.7087097167969	95.4928665161133	-1092.775634765625	-405.0435791015626	44.40624618530274	-1113.41259765625	-192.0029449462891	56.04687881469728	-1138.172485351563	-200.5249938964844	58.61198806762697	-1180.910034179688	-250.8651885986329	35.21045684814454	-1225.710571289063	-457.4029541015626	471.5755004882814	-718.1845703125001	-391.2443847656251	518.5253295898439	-744.0270385742189	-400.339569091797	499.7170410156251	-715.4736328125001	-333.7004699707032	472.1523742675782	-678.2110595703126	-192.0502624511719	419.9449768066407	-653.4120483398439	-178.1864929199219	247.6654968261719	-700.2136840820314	-275.5505371093751	205.4827728271485	-662.8157958984376	-238.291976928711	189.8896942138672	-688.6871948242189	-251.247543334961	147.2239379882813	-730.6138305664064	-353.2635498046876	98.10984802246097	-701.5314331054689	-314.6253051757813	93.59268951416017	-774.0283813476565	-400.2290344238282	44.35167312622071	-766.2554321289064	-198.4312286376954	52.95876693725587	-708.6703491210939	-212.4075622558594	60.71628570556642	-664.7079467773439	-266.8814086914063	41.91355895996094	-628.7774047851564	
